<svg width="36" height="37" viewBox="0 0 36 37" fill="none" xmlns="http://www.w3.org/2000/svg">
<path d="M29.1193 16.0962V29.6446C29.1193 30.5303 28.7675 31.3796 28.1413 32.0059C27.515 32.6321 26.6657 32.9839 25.78 32.9839H10.1967C9.31107 32.9839 8.46171 32.6321 7.83548 32.0059C7.20924 31.3796 6.85742 30.5303 6.85742 29.6446V7.38274C6.85742 6.49711 7.20924 5.64775 7.83548 5.02151C8.46171 4.39527 9.31107 4.04346 10.1967 4.04346H17.0666C17.6568 4.04355 18.2228 4.27801 18.6402 4.69531L28.4675 14.5226C28.8848 14.9399 29.1192 15.506 29.1193 16.0962Z" stroke="#2C337C" stroke-width="2.61905" stroke-linejoin="round"/>
<mask id="path-2-inside-1_537_261" fill="white">
<path d="M17.9883 4.6001V12.9483C17.9883 13.5387 18.2228 14.105 18.6403 14.5225C19.0578 14.94 19.624 15.1745 20.2145 15.1745H28.5627"/>
</mask>
<path d="M29.5121 4.6001C29.5121 -1.76433 24.3527 -6.92371 17.9883 -6.92371C11.6239 -6.92371 6.46447 -1.76433 6.46447 4.6001H29.5121ZM17.9883 12.9483H29.5121H17.9883ZM28.5627 26.6983C34.9271 26.6983 40.0865 21.5389 40.0865 15.1745C40.0865 8.81008 34.9271 3.65069 28.5627 3.65069V26.6983ZM6.46447 4.6001V12.9483H29.5121V4.6001H6.46447ZM6.46447 12.9483C6.46447 16.595 7.91313 20.0924 10.4918 22.671L26.7889 6.3739C28.5325 8.11754 29.5121 10.4824 29.5121 12.9483L6.46447 12.9483ZM10.4918 22.671C13.0704 25.2497 16.5677 26.6983 20.2145 26.6983V3.65069C22.6804 3.65069 25.0452 4.63027 26.7889 6.3739L10.4918 22.671ZM20.2145 26.6983H28.5627V3.65069H20.2145V26.6983Z" fill="#2C337C" mask="url(#path-2-inside-1_537_261)"/>
</svg>
