<svg width="23" height="26" viewBox="0 0 23 26" fill="none" xmlns="http://www.w3.org/2000/svg">
<path d="M7.15625 3.03177C6.78329 3.03177 6.4256 3.17992 6.16188 3.44365C5.89816 3.70737 5.75 4.06506 5.75 4.43802C5.75 4.81098 5.89816 5.16866 6.16188 5.43238C6.4256 5.69611 6.78329 5.84427 7.15625 5.84427C7.52921 5.84427 7.8869 5.69611 8.15062 5.43238C8.41434 5.16866 8.5625 4.81098 8.5625 4.43802C8.5625 4.06506 8.41434 3.70737 8.15062 3.44365C7.8869 3.17992 7.52921 3.03177 7.15625 3.03177ZM3.17656 3.03177C3.4671 2.20836 4.00588 1.49534 4.71866 0.991001C5.43143 0.486658 6.28309 0.21582 7.15625 0.21582C8.02941 0.21582 8.88107 0.486658 9.59384 0.991001C10.3066 1.49534 10.8454 2.20836 11.1359 3.03177H21.2187C21.5917 3.03177 21.9494 3.17992 22.2131 3.44365C22.4768 3.70737 22.625 4.06506 22.625 4.43802C22.625 4.81098 22.4768 5.16866 22.2131 5.43238C21.9494 5.69611 21.5917 5.84427 21.2187 5.84427H11.1359C10.8454 6.66767 10.3066 7.38069 9.59384 7.88503C8.88107 8.38937 8.02941 8.66021 7.15625 8.66021C6.28309 8.66021 5.43143 8.38937 4.71866 7.88503C4.00588 7.38069 3.4671 6.66767 3.17656 5.84427H1.53125C1.15829 5.84427 0.800604 5.69611 0.536881 5.43238C0.273158 5.16866 0.125 4.81098 0.125 4.43802C0.125 4.06506 0.273158 3.70737 0.536881 3.44365C0.800604 3.17992 1.15829 3.03177 1.53125 3.03177H3.17656ZM15.5937 11.4693C15.2208 11.4693 14.8631 11.6174 14.5994 11.8811C14.3357 12.1449 14.1875 12.5026 14.1875 12.8755C14.1875 13.2485 14.3357 13.6062 14.5994 13.8699C14.8631 14.1336 15.2208 14.2818 15.5937 14.2818C15.9667 14.2818 16.3244 14.1336 16.5881 13.8699C16.8518 13.6062 17 13.2485 17 12.8755C17 12.5026 16.8518 12.1449 16.5881 11.8811C16.3244 11.6174 15.9667 11.4693 15.5937 11.4693ZM11.6141 11.4693C11.9046 10.6459 12.4434 9.93284 13.1562 9.4285C13.8689 8.92416 14.7206 8.65332 15.5937 8.65332C16.4669 8.65332 17.3186 8.92416 18.0313 9.4285C18.7441 9.93284 19.2829 10.6459 19.5734 11.4693H21.2187C21.5917 11.4693 21.9494 11.6174 22.2131 11.8811C22.4768 12.1449 22.625 12.5026 22.625 12.8755C22.625 13.2485 22.4768 13.6062 22.2131 13.8699C21.9494 14.1336 21.5917 14.2818 21.2187 14.2818H19.5734C19.2829 15.1052 18.7441 15.8182 18.0313 16.3225C17.3186 16.8269 16.4669 17.0977 15.5937 17.0977C14.7206 17.0977 13.8689 16.8269 13.1562 16.3225C12.4434 15.8182 11.9046 15.1052 11.6141 14.2818H1.53125C1.15829 14.2818 0.800604 14.1336 0.536881 13.8699C0.273158 13.6062 0.125 13.2485 0.125 12.8755C0.125 12.5026 0.273158 12.1449 0.536881 11.8811C0.800604 11.6174 1.15829 11.4693 1.53125 11.4693H11.6141ZM7.15625 19.9068C6.78329 19.9068 6.4256 20.0549 6.16188 20.3186C5.89816 20.5824 5.75 20.9401 5.75 21.313C5.75 21.686 5.89816 22.0437 6.16188 22.3074C6.4256 22.5711 6.78329 22.7193 7.15625 22.7193C7.52921 22.7193 7.8869 22.5711 8.15062 22.3074C8.41434 22.0437 8.5625 21.686 8.5625 21.313C8.5625 20.9401 8.41434 20.5824 8.15062 20.3186C7.8869 20.0549 7.52921 19.9068 7.15625 19.9068ZM3.17656 19.9068C3.4671 19.0834 4.00588 18.3703 4.71866 17.866C5.43143 17.3617 6.28309 17.0908 7.15625 17.0908C8.02941 17.0908 8.88107 17.3617 9.59384 17.866C10.3066 18.3703 10.8454 19.0834 11.1359 19.9068H21.2187C21.5917 19.9068 21.9494 20.0549 22.2131 20.3186C22.4768 20.5824 22.625 20.9401 22.625 21.313C22.625 21.686 22.4768 22.0437 22.2131 22.3074C21.9494 22.5711 21.5917 22.7193 21.2187 22.7193H11.1359C10.8454 23.5427 10.3066 24.2557 9.59384 24.76C8.88107 25.2644 8.02941 25.5352 7.15625 25.5352C6.28309 25.5352 5.43143 25.2644 4.71866 24.76C4.00588 24.2557 3.4671 23.5427 3.17656 22.7193H1.53125C1.15829 22.7193 0.800604 22.5711 0.536881 22.3074C0.273158 22.0437 0.125 21.686 0.125 21.313C0.125 20.9401 0.273158 20.5824 0.536881 20.3186C0.800604 20.0549 1.15829 19.9068 1.53125 19.9068H3.17656Z" fill="white"/>
</svg>
