<svg width="25" height="22" viewBox="0 0 25 22" fill="none" xmlns="http://www.w3.org/2000/svg">
<path d="M13.625 17.3755C13.625 17.758 13.67 18.1292 13.7263 18.5005H6.3125C4.625 18.5005 3.15125 17.938 1.93625 16.7342C0.7325 15.553 0.125 14.1017 0.125 12.403C0.125 10.9405 0.56375 9.63549 1.44125 8.48799C2.31875 7.34049 3.5 6.60924 4.90625 6.29424C5.37875 4.57299 6.3125 3.17799 7.71875 2.10924C9.125 1.04049 10.7225 0.500488 12.5 0.500488C14.6938 0.500488 16.55 1.26549 18.08 2.79549C19.61 4.32549 20.375 6.18174 20.375 8.37549C21.6688 8.52174 22.7375 9.08424 23.5925 10.063C24.1663 10.7042 24.5375 11.4242 24.7175 12.223C23.5081 11.1876 21.9671 10.6207 20.375 10.6255H18.125V8.37549C18.125 6.82299 17.5625 5.49549 16.4825 4.39299C15.38 3.31299 14.0525 2.75049 12.5 2.75049C10.9475 2.75049 9.62 3.31299 8.5175 4.39299C7.4375 5.49549 6.875 6.82299 6.875 8.37549H6.3125C5.22125 8.37549 4.29875 8.75799 3.53375 9.53424C2.7575 10.2992 2.375 11.2217 2.375 12.313C2.375 13.4042 2.7575 14.3267 3.53375 15.1255C4.29875 15.868 5.22125 16.2505 6.3125 16.2505H13.7263C13.67 16.6217 13.625 16.993 13.625 17.3755ZM22.76 13.393L20.375 15.7892L17.99 13.4042L16.4038 14.9905L18.7888 17.3755L16.4038 19.7605L17.99 21.358L20.375 18.9617L22.76 21.358L24.3575 19.7605L21.9613 17.3755L24.3575 14.9905L22.76 13.393Z" fill="white"/>
</svg>
