<svg width="19" height="19" viewBox="0 0 19 19" fill="none" xmlns="http://www.w3.org/2000/svg">
<path d="M9.5 0.500488C10.6935 0.500488 11.8381 0.974594 12.682 1.81851C13.5259 2.66242 14 3.80701 14 5.00049C14 6.19396 13.5259 7.33856 12.682 8.18247C11.8381 9.02638 10.6935 9.50049 9.5 9.50049C8.30653 9.50049 7.16193 9.02638 6.31802 8.18247C5.47411 7.33856 5 6.19396 5 5.00049C5 3.80701 5.47411 2.66242 6.31802 1.81851C7.16193 0.974594 8.30653 0.500488 9.5 0.500488ZM9.5 2.75049C8.90326 2.75049 8.33097 2.98754 7.90901 3.4095C7.48705 3.83145 7.25 4.40375 7.25 5.00049C7.25 5.59723 7.48705 6.16952 7.90901 6.59148C8.33097 7.01343 8.90326 7.25049 9.5 7.25049C10.0967 7.25049 10.669 7.01343 11.091 6.59148C11.5129 6.16952 11.75 5.59723 11.75 5.00049C11.75 4.40375 11.5129 3.83145 11.091 3.4095C10.669 2.98754 10.0967 2.75049 9.5 2.75049ZM9.5 10.6255C12.5037 10.6255 18.5 12.1217 18.5 15.1255V18.5005H0.5V15.1255C0.5 12.1217 6.49625 10.6255 9.5 10.6255ZM9.5 12.763C6.15875 12.763 2.6375 14.4055 2.6375 15.1255V16.363H16.3625V15.1255C16.3625 14.4055 12.8413 12.763 9.5 12.763Z" fill="white"/>
</svg>
