<svg width="26" height="25" viewBox="0 0 26 25" fill="none" xmlns="http://www.w3.org/2000/svg">
<path d="M18.0469 15.6875H16.9359L16.5422 15.3078C17.9679 13.6541 18.7516 11.5429 18.75 9.35938C18.75 7.55153 18.2139 5.78429 17.2095 4.28112C16.2051 2.77795 14.7776 1.60637 13.1073 0.914543C11.4371 0.22271 9.59924 0.0416956 7.82613 0.394389C6.05302 0.747082 4.42432 1.61764 3.14598 2.89598C1.86764 4.17432 0.997082 5.80302 0.644389 7.57613C0.291696 9.34924 0.47271 11.1871 1.16454 12.8573C1.85637 14.5276 3.02795 15.9551 4.53112 16.9595C6.03429 17.9639 7.80153 18.5 9.60938 18.5C11.8734 18.5 13.9547 17.6703 15.5578 16.2922L15.9375 16.6859V17.7969L22.9688 24.8141L25.0641 22.7188L18.0469 15.6875ZM9.60938 15.6875C6.10782 15.6875 3.28125 12.8609 3.28125 9.35938C3.28125 5.85782 6.10782 3.03125 9.60938 3.03125C13.1109 3.03125 15.9375 5.85782 15.9375 9.35938C15.9375 12.8609 13.1109 15.6875 9.60938 15.6875Z" fill="white"/>
</svg>
