<svg width="24" height="30" viewBox="0 0 24 30" fill="none" xmlns="http://www.w3.org/2000/svg">
<path d="M20.3125 10.25H18.9062V7.4375C18.9062 3.55625 15.7562 0.40625 11.875 0.40625C7.99375 0.40625 4.84375 3.55625 4.84375 7.4375V10.25H3.4375C1.89062 10.25 0.625 11.5156 0.625 13.0625V27.125C0.625 28.6719 1.89062 29.9375 3.4375 29.9375H20.3125C21.8594 29.9375 23.125 28.6719 23.125 27.125V13.0625C23.125 11.5156 21.8594 10.25 20.3125 10.25ZM7.65625 7.4375C7.65625 5.10313 9.54062 3.21875 11.875 3.21875C14.2094 3.21875 16.0937 5.10313 16.0937 7.4375V10.25H7.65625V7.4375ZM20.3125 27.125H3.4375V13.0625H20.3125V27.125ZM11.875 22.9062C13.4219 22.9062 14.6875 21.6406 14.6875 20.0938C14.6875 18.5469 13.4219 17.2812 11.875 17.2812C10.3281 17.2812 9.0625 18.5469 9.0625 20.0938C9.0625 21.6406 10.3281 22.9062 11.875 22.9062Z" fill="white"/>
</svg>
