<svg width="121" height="105" viewBox="0 0 121 105" fill="none" xmlns="http://www.w3.org/2000/svg">
<path d="M11.4378 104.481C8.42886 104.481 5.85209 103.408 3.7075 101.264C1.56292 99.1193 0.492456 96.5443 0.496103 93.539V27.8885C0.496103 26.3385 1.02131 25.0382 2.07171 23.9878C3.12212 22.9374 4.42054 22.414 5.96697 22.4177C7.51705 22.4177 8.8173 22.9429 9.8677 23.9933C10.9181 25.0437 11.4415 26.3421 11.4378 27.8885V93.539H98.9718C100.522 93.539 101.822 94.0642 102.872 95.1146C103.923 96.165 104.446 97.4634 104.443 99.0098C104.443 100.56 103.917 101.86 102.867 102.911C101.817 103.961 100.518 104.484 98.9718 104.481H11.4378ZM33.3213 82.5972C30.3123 82.5972 27.7356 81.525 25.591 79.3804C23.4464 77.2358 22.3759 74.6608 22.3796 71.6555V11.4759C22.3796 8.46695 23.4519 5.89017 25.5965 3.74559C27.741 1.60101 30.316 0.530542 33.3213 0.534189H56.1622C57.6211 0.534189 59.0125 0.807733 60.3365 1.35482C61.6604 1.90191 62.8221 2.67695 63.8214 3.67994L71.6174 11.4759H109.914C112.922 11.4759 115.499 12.5482 117.644 14.6928C119.788 16.8374 120.859 19.4123 120.855 22.4177V71.6555C120.855 74.6645 119.783 77.2413 117.638 79.3858C115.494 81.5304 112.919 82.6009 109.914 82.5972H33.3213ZM33.3213 71.6555H109.914V22.4177H67.104L56.1622 11.4759H33.3213V71.6555Z" fill="white"/>
</svg>
