<svg width="31" height="28" viewBox="0 0 31 28" fill="none" xmlns="http://www.w3.org/2000/svg">
<path d="M16.0312 21.7187C16.0312 22.1969 16.0875 22.6609 16.1578 23.125H3.375C2.62908 23.125 1.91371 22.8287 1.38626 22.3012C0.858816 21.7738 0.5625 21.0584 0.5625 20.3125V3.4375C0.5625 1.87656 1.81406 0.625 3.375 0.625H11.8125L14.625 3.4375H25.875C26.6209 3.4375 27.3363 3.73382 27.8637 4.26126C28.3912 4.78871 28.6875 5.50408 28.6875 6.25V14.4203C27.8297 13.9281 26.8875 13.5906 25.875 13.4078V6.25H3.375V20.3125H16.1578C16.0875 20.7766 16.0312 21.2406 16.0312 21.7187ZM25.875 20.3125V16.0937H23.0625V20.3125H18.8438V23.125H23.0625V27.3437H25.875V23.125H30.0938V20.3125H25.875Z" fill="white"/>
</svg>
